<svg id="visual" viewBox="0 0 900 600" width="900" height="600" xmlns="http://www.w3.org/2000/svg" xmlns:xlink="http://www.w3.org/1999/xlink" version="1.1"><g transform="translate(403.96001863877757 357.85992352781676)"><path d="M200.9 -241.1C260.8 -189.1 310.1 -126.3 296.5 -71.8C282.9 -17.3 206.4 28.9 162.6 83.8C118.9 138.6 107.8 202.3 78.2 211.8C48.5 221.3 0.2 176.7 -58.1 156.8C-116.4 136.8 -184.6 141.4 -201.9 114.9C-219.1 88.4 -185.4 30.8 -173.7 -29.8C-162 -90.3 -172.3 -154 -147 -212C-121.7 -270 -60.9 -322.5 4.8 -328.3C70.5 -334 141 -293 200.9 -241.1" fill="#BB004B"></path></g></svg>